<svg width="16" height="16" viewBox="0 0 16 16" fill="none" xmlns="http://www.w3.org/2000/svg">
<g clip-path="url(#clip0)">
<path d="M9.46585 8.01424L15.6959 1.78397C16.1014 1.37871 16.1014 0.723475 15.6959 0.318222C15.2907 -0.0870311 14.6354 -0.0870311 14.2302 0.318222L7.99991 6.54849L1.76983 0.318222C1.36439 -0.0870311 0.709336 -0.0870311 0.304083 0.318222C-0.101361 0.723475 -0.101361 1.37871 0.304083 1.78397L6.53417 8.01424L0.304083 14.2445C-0.101361 14.6498 -0.101361 15.305 0.304083 15.7102C0.506045 15.9124 0.771595 16.014 1.03696 16.014C1.30232 16.014 1.56768 15.9124 1.76983 15.7102L7.99991 9.47998L14.2302 15.7102C14.4323 15.9124 14.6977 16.014 14.9631 16.014C15.2284 16.014 15.4938 15.9124 15.6959 15.7102C16.1014 15.305 16.1014 14.6498 15.6959 14.2445L9.46585 8.01424Z" fill="black"/>
</g>
<defs>
<clipPath id="clip0">
<rect width="16" height="16" fill="white"/>
</clipPath>
</defs>
</svg>
