<svg width="17" height="17" viewBox="0 0 17 17" fill="none" xmlns="http://www.w3.org/2000/svg">
<g clip-path="url(#clip0)">
<path d="M8.5 3.43311C5.25197 3.43311 2.30648 5.21013 0.133016 8.0965C-0.0443388 8.33297 -0.0443388 8.66334 0.133016 8.89981C2.30648 11.7897 5.25197 13.5667 8.5 13.5667C11.748 13.5667 14.6935 11.7897 16.867 8.90329C17.0443 8.66682 17.0443 8.33645 16.867 8.09998C14.6935 5.21013 11.748 3.43311 8.5 3.43311ZM8.733 12.0679C6.57691 12.2035 4.79641 10.4265 4.93203 8.2669C5.04332 6.48639 6.4865 5.04321 8.267 4.93193C10.4231 4.7963 12.2036 6.57333 12.068 8.73289C11.9532 10.5099 10.51 11.9531 8.733 12.0679ZM8.62519 10.4195C7.46369 10.4925 6.50389 9.5362 6.58039 8.3747C6.63951 7.4149 7.41848 6.63941 8.37829 6.57681C9.53979 6.50378 10.4996 7.46011 10.4231 8.62161C10.3605 9.58489 9.58152 10.3604 8.62519 10.4195Z" fill="#71A4FF"/>
</g>
<defs>
<clipPath id="clip0">
<rect width="17" height="17" fill="white"/>
</clipPath>
</defs>
</svg>
